# xmcd
#
# Track frame offsets: 
#        150
#        9751
#        22662
#        32991
#        44765
#        53267
#        64843
#        75130
#        83854
#        95878
#        104915
#        116052
#        127058
#        136108
#        147004
#        160135
#        169198
#        178695
#        188280
#        197419
#        208658
#        219766
#        230619
#        241418
#        253132
#        256471
#        257947
#        269824
#        271347
#        273975
#        278326
#        286116
#        288872
#        295601
#
# Disc length: 4059 seconds
#
# Revision: 0
# Processed by: cddbd v1.5.2PL0 Copyright (c) Steve Scherf et al.
# Submitted via: ExactAudioCopy v0.95b3
#
DISCID=e90fd922
DTITLE=Elvis Presley  - Elvis' Gold Records volume 2 CD 1
DYEAR=1900
DGENRE=
TTITLE0=Elvis' Gold Records volume 2 CD 1 - I Need Your Love Tonight
TTITLE1=Don't
TTITLE2=Wear My Ring Around Your Neck
TTITLE3=Elvis' Gold Records volume 2 CD 1 - My Wish Came True
TTITLE4=I Got Stung
TTITLE5=One Night
TTITLE6=A Big Hunk O' Love - msp3,4
TTITLE7=I Beg Of you
TTITLE8=Elvis' Gold Records volume 2 CD 1 - A Fool Such As I
TTITLE9=Doncha Think It's Time - sp40,39 - LP version
TTITLE10=Your Cheatin' Heart
TTITLE11=Ain't That Loving You Baby
TTITLE12=Doncha Think It's Time - msp47,40,48 - single version
TTITLE13=Wear My Ring Around Your Neck - ud
TTITLE14=Your Cheatin' Heart - t9
TTITLE15=Doncha Think It's Time - t39
TTITLE16=Doncha Think It's Time - t40
TTITLE17=Doncha Think It's Time - t47
TTITLE18=Doncha Think It's Time - t48
TTITLE19=A Big Hunk O' Love - t1
TTITLE20=A Big Hunk O' Love - t2
TTITLE21=A Big Hunk O' Love - t3
TTITLE22=A Big Hunk O' Love - t4
TTITLE23=Ain't That Loving You Baby - t1
TTITLE24=Ain't That Loving You Baby - t2
TTITLE25=Ain't That Loving You Baby - t3
TTITLE26=Ain't That Loving You Baby - t4
TTITLE27=Ain't That Loving You Baby - t5
TTITLE28=Ain't That Loving You Baby - t6
TTITLE29=Ain't That Loving You Baby - t7
TTITLE30=Ain't That Loving You Baby - t8
TTITLE31=Ain't That Loving You Baby - t9
TTITLE32=Ain't That Loving You Baby - t10
TTITLE33=Ain't That Loving You Baby - t11
EXTD=
EXTT0=
EXTT1=
EXTT2=
EXTT3=
EXTT4=
EXTT5=
EXTT6=
EXTT7=
EXTT8=
EXTT9=
EXTT10=
EXTT11=
EXTT12=
EXTT13=
EXTT14=
EXTT15=
EXTT16=
EXTT17=
EXTT18=
EXTT19=
EXTT20=
EXTT21=
EXTT22=
EXTT23=
EXTT24=
EXTT25=
EXTT26=
EXTT27=
EXTT28=
EXTT29=
EXTT30=
EXTT31=
EXTT32=
EXTT33=
PLAYORDER=
